<svg width="28" height="28" viewBox="0 0 28 28" fill="none" xmlns="http://www.w3.org/2000/svg">
<rect width="28" height="28" rx="14" fill="#FFEFE9"/>
<path d="M8.16683 11.5C8.16683 8.73833 10.7785 6.5 14.0002 6.5C17.2218 6.5 19.8335 8.73833 19.8335 11.5M19.8335 18.1667V18.8333C19.8335 20.3058 18.3418 21.5 16.5002 21.5H14.8335M18.1668 13.0042C18.1668 12.7158 18.1668 12.5717 18.2102 12.4433C18.336 12.07 18.6685 11.9258 19.0018 11.7742C19.3752 11.6033 19.5618 11.5183 19.7477 11.5033C19.9577 11.4867 20.1685 11.5317 20.3485 11.6325C20.5868 11.7658 20.7535 12.0208 20.9235 12.2275C21.7093 13.1825 22.1027 13.66 22.246 14.1858C22.3627 14.6108 22.3627 15.0558 22.246 15.48C22.0368 16.2483 21.3743 16.8917 20.8835 17.4883C20.6327 17.7925 20.5068 17.945 20.3485 18.0342C20.1654 18.1357 19.9563 18.1807 19.7477 18.1633C19.5618 18.1483 19.3752 18.0633 19.001 17.8925C18.6677 17.7408 18.336 17.5967 18.2102 17.2233C18.1668 17.095 18.1668 16.9508 18.1668 16.6625V13.0042ZM9.8335 13.0042C9.8335 12.6408 9.8235 12.315 9.53017 12.06C9.4235 11.9675 9.28183 11.9033 8.99933 11.7742C8.62517 11.6042 8.4385 11.5183 8.25267 11.5033C7.69683 11.4583 7.39767 11.8383 7.07767 12.2283C6.291 13.1825 5.89767 13.66 5.7535 14.1867C5.6375 14.6103 5.6375 15.0572 5.7535 15.4808C5.9635 16.2483 6.62683 16.8925 7.11683 17.4883C7.426 17.8633 7.72183 18.2058 8.25267 18.1633C8.4385 18.1483 8.62517 18.0633 8.99933 17.8925C9.28267 17.7642 9.4235 17.6992 9.53017 17.6067C9.8235 17.3517 9.8335 17.0258 9.8335 16.6633V13.0042Z" stroke="#FF5A1F" stroke-width="1.5" stroke-linecap="round" stroke-linejoin="round"/>
</svg>
