<svg width="14" height="15" viewBox="0 0 14 15" fill="none" xmlns="http://www.w3.org/2000/svg">
<path d="M11.375 3.70866L11.0133 9.55658C10.9212 11.0505 10.8751 11.7977 10.5 12.335C10.3148 12.6005 10.0764 12.8246 9.8 12.993C9.24175 13.3337 8.49333 13.3337 6.9965 13.3337C5.49733 13.3337 4.74775 13.3337 4.18833 12.9924C3.91177 12.8237 3.67337 12.5992 3.48833 12.3332C3.11383 11.7954 3.06833 11.047 2.9785 9.55074L2.625 3.70866M5.25 7.34574H8.75M6.125 9.63183H7.875M1.75 3.70866H12.25M9.36542 3.70866L8.96758 2.88733C8.70275 2.34133 8.57092 2.06891 8.34283 1.89858C8.29217 1.86084 8.23852 1.82729 8.18242 1.79824C7.92983 1.66699 7.6265 1.66699 7.01983 1.66699C6.39858 1.66699 6.08767 1.66699 5.83042 1.80349C5.77355 1.83395 5.71931 1.86907 5.66825 1.90849C5.43725 2.08524 5.30833 2.36816 5.0505 2.93341L4.69758 3.70866" stroke="#FF5A1F" stroke-linecap="round" stroke-linejoin="round"/>
</svg>
