<svg width="20" height="20" viewBox="0 0 20 20" fill="none" xmlns="http://www.w3.org/2000/svg">
<path d="M5.8333 7.08332L8.28496 8.53332C9.71413 9.37832 10.285 9.37832 11.715 8.53332L14.1666 7.08332M1.67996 11.23C1.73413 13.7842 1.76163 15.0617 2.70413 16.0075C3.64663 16.9542 4.9583 16.9867 7.58246 17.0525C9.19913 17.0942 10.8008 17.0942 12.4175 17.0525C15.0416 16.9867 16.3533 16.9542 17.2958 16.0075C18.2383 15.0617 18.2658 13.7842 18.3208 11.23C18.3375 10.4083 18.3375 9.59166 18.3208 8.76999C18.2658 6.21582 18.2383 4.93832 17.2958 3.99249C16.3533 3.04582 15.0416 3.01332 12.4175 2.94749C10.8061 2.90683 9.19387 2.90683 7.58246 2.94749C4.9583 3.01332 3.64663 3.04582 2.70413 3.99249C1.76163 4.93832 1.73413 6.21582 1.67913 8.76999C1.66159 9.5899 1.66242 10.4101 1.67996 11.23Z" stroke="#070D17" stroke-width="1.5" stroke-linecap="round" stroke-linejoin="round"/>
</svg>
