<svg width="173" height="138" viewBox="0 0 173 138" fill="none" xmlns="http://www.w3.org/2000/svg">
<path d="M29.1631 10.5742C36.8098 10.0382 42.2126 13.5543 48.3271 18.1914H48.3281C57.7875 25.3411 68.0953 31.4771 79.876 34.7627C91.6384 38.0431 104.16 38.5254 116.429 38.5254H116.432C118.524 38.5181 120.612 38.4883 122.686 38.459C124.761 38.4297 126.822 38.4009 128.868 38.3936L128.881 38.3926C131.676 38.3331 134.692 37.9857 137.763 37.6162C140.846 37.2452 143.99 36.8516 147.092 36.6875C153.301 36.359 159.193 36.9613 163.882 40.3809C167.544 43.2883 170.024 47.4281 170.858 52.0293L170.86 52.04L170.862 52.0498C172.552 60.0602 172.454 70.0204 170.201 79.2754C167.946 88.5378 163.557 97.0003 156.754 102.128C149.308 107.738 140.037 110.095 130.391 110.705C121.348 111.277 112.028 110.311 103.667 109.091L102.008 108.845V108.844C81.9757 105.819 62.1476 100.563 44.0576 91.5254H44.0566C36.188 87.6056 27.6674 82.6546 20.3662 76.5391C13.0627 70.4216 7.01784 63.1704 4.03711 54.6592C2.03845 48.9601 0.666594 42.0639 1.03516 35.5322C1.40362 29.0023 3.50432 22.91 8.36719 18.6875L8.36621 18.6865C14.2428 13.8207 21.5311 10.9771 29.1504 10.5752L29.1631 10.5742Z" fill="#FFEBEF" stroke="#FF7995" stroke-width="1.46481"/>
<path d="M151.131 102.845V109.129" stroke="#FF7995" stroke-width="1.46481" stroke-linecap="round" stroke-linejoin="round"/>
<path d="M147.981 105.979H154.265" stroke="#FF7995" stroke-width="1.46481" stroke-linecap="round" stroke-linejoin="round"/>
<path d="M41.4893 17.1094V23.4081" stroke="#FF7995" stroke-width="1.46481" stroke-linecap="round" stroke-linejoin="round"/>
<path d="M38.3547 20.2588H44.6388" stroke="#FF7995" stroke-width="1.46481" stroke-linecap="round" stroke-linejoin="round"/>
<path d="M146.941 15.543C147.329 15.543 147.644 15.8578 147.644 16.2461C147.644 16.6344 147.329 16.9492 146.941 16.9492C146.553 16.9492 146.238 16.6344 146.238 16.2461C146.238 15.8578 146.553 15.543 146.941 15.543Z" fill="#FFC1CE" stroke="#FF7995" stroke-width="1.46481"/>
<path d="M46.3818 61.4355C46.7701 61.4356 47.085 61.7504 47.085 62.1387C47.0849 62.527 46.7701 62.8418 46.3818 62.8418C45.9935 62.8418 45.6787 62.527 45.6787 62.1387C45.6787 61.7504 45.9935 61.4355 46.3818 61.4355Z" fill="#FFC1CE" stroke="#FF7995" stroke-width="1.46481"/>
<path d="M92.6113 132.054C107.426 132.054 120.832 132.427 130.527 133.03C135.378 133.332 139.285 133.691 141.971 134.086C143.255 134.275 144.234 134.469 144.896 134.661C144.234 134.853 143.255 135.047 141.971 135.236C139.285 135.631 135.378 135.99 130.527 136.292C120.832 136.895 107.426 137.269 92.6113 137.269C77.7967 137.269 64.391 136.895 54.6953 136.292C49.8445 135.99 45.9372 135.631 43.251 135.236C41.9662 135.047 40.9873 134.853 40.3252 134.661C40.9873 134.469 41.9661 134.275 43.251 134.086C45.9372 133.691 49.8445 133.332 54.6953 133.03C64.391 132.427 77.7967 132.054 92.6113 132.054Z" fill="#FFC1CE" stroke="#FF7995" stroke-width="1.46481"/>
<path d="M56.0938 0.732422H119.445L119.691 0.739258C120.922 0.803162 122.089 1.32007 122.964 2.19531C123.839 3.07057 124.356 4.23743 124.42 5.46777L124.427 5.71484V99.1152C124.434 100.006 124.203 100.882 123.757 101.652C123.311 102.423 122.666 103.059 121.891 103.496C121.115 103.933 120.236 104.154 119.346 104.136C118.456 104.118 117.586 103.861 116.829 103.394L116.821 103.389L90.7617 87.7441L90.7598 87.7432L90.3779 87.5332C89.474 87.0746 88.4728 86.834 87.4551 86.834C86.292 86.834 85.1508 87.1483 84.1514 87.7432L84.1445 87.7471L58.6855 103.273C57.9305 103.734 57.0667 103.985 56.1826 104.001C55.2986 104.017 54.4262 103.797 53.6553 103.364C52.8843 102.931 52.2426 102.3 51.7959 101.537C51.3492 100.774 51.1133 99.9057 51.1133 99.0215V5.71289C51.1133 4.39202 51.6383 3.12541 52.5723 2.19141C53.5063 1.25741 54.7729 0.732422 56.0938 0.732422Z" fill="#FFEBEF" stroke="#FF7995" stroke-width="1.46481"/>
<path d="M127.562 115.414L100.36 99.081C99.4277 98.5176 98.3589 98.2198 97.2694 98.2198C96.1799 98.2198 95.1112 98.5176 94.1787 99.081L67.607 115.311C66.7014 115.862 65.6657 116.162 64.6059 116.18C63.5462 116.199 62.5006 115.935 61.5764 115.416C60.6521 114.898 59.8824 114.142 59.3463 113.228C58.8101 112.314 58.5267 111.273 58.5251 110.214V12.7889C58.529 11.2064 59.1604 9.69005 60.2808 8.57242C61.4012 7.45479 62.9191 6.82714 64.5016 6.82715H130.638C132.219 6.82715 133.735 7.45526 134.853 8.57331C135.972 9.69136 136.6 11.2078 136.6 12.7889V110.301C136.601 111.358 136.321 112.395 135.789 113.308C135.257 114.221 134.493 114.976 133.573 115.496C132.654 116.016 131.613 116.282 130.556 116.268C129.5 116.254 128.467 115.959 127.562 115.414Z" fill="white" stroke="#FF7995" stroke-width="1.46481" stroke-linecap="round" stroke-linejoin="round"/>
<path d="M97.562 20.9023C112.294 20.9023 124.237 32.8446 124.237 47.5762C124.237 62.3079 112.294 74.251 97.562 74.251C82.8304 74.2508 70.8882 62.3078 70.8882 47.5762C70.8884 32.8447 82.8305 20.9026 97.562 20.9023Z" fill="#FFEBEF" stroke="#FF7995" stroke-width="1.46481"/>
<path d="M98.9683 28.2577L104.007 38.5114L115.257 40.152C115.545 40.1957 115.814 40.3186 116.036 40.5069C116.258 40.6952 116.422 40.9415 116.512 41.2181C116.602 41.4948 116.613 41.791 116.544 42.0735C116.475 42.3561 116.328 42.6138 116.121 42.8179L107.977 50.7572L109.896 61.963C109.945 62.251 109.914 62.5471 109.804 62.8179C109.694 63.0888 109.511 63.3235 109.275 63.4956C109.038 63.6678 108.759 63.7705 108.467 63.7922C108.176 63.8138 107.884 63.7536 107.625 63.6183L97.5621 58.2571L87.4988 63.5597C87.2398 63.695 86.9482 63.7552 86.6567 63.7336C86.3653 63.7119 86.0858 63.6092 85.8496 63.437C85.6135 63.2649 85.4302 63.0302 85.3204 62.7593C85.2106 62.4885 85.1788 62.1924 85.2284 61.9044L87.1619 50.6986L79.0176 42.73C78.8048 42.5283 78.6535 42.2705 78.5812 41.9863C78.5089 41.7022 78.5185 41.4034 78.6089 41.1245C78.6993 40.8456 78.8668 40.598 79.0921 40.4103C79.3174 40.2227 79.5912 40.1026 79.8818 40.0641L91.1316 38.4235L96.1705 28.1698C96.3092 27.9149 96.516 27.7035 96.7677 27.5592C97.0195 27.4148 97.3064 27.3432 97.5965 27.3523C97.8865 27.3614 98.1684 27.4509 98.4106 27.6108C98.6528 27.7706 98.8459 27.9946 98.9683 28.2577Z" fill="white" stroke="#FF7995" stroke-width="1.46481" stroke-linecap="round" stroke-linejoin="round"/>
</svg>
