<svg width="28" height="28" viewBox="0 0 28 28" fill="none" xmlns="http://www.w3.org/2000/svg">
<rect width="28" height="28" rx="14" fill="#FFEFE9"/>
<path d="M9.1515 12.6102C8.3365 12.6102 8.1665 12.7702 8.1665 13.536V14.9252C8.1665 15.6918 8.3365 15.851 9.1515 15.851H11.1207V21.4068C11.1207 22.1735 11.2915 22.3327 12.1057 22.3327H14.0757C14.8907 22.3327 15.0607 22.1727 15.0607 21.4068V15.851H17.2723C17.8898 15.851 18.049 15.7385 18.219 15.1793L18.6415 13.791C18.9323 12.8335 18.7523 12.6102 17.694 12.6102H15.0607V10.296C15.0607 9.78435 15.5015 9.36935 16.0448 9.36935H18.8482C19.6632 9.36935 19.8332 9.21018 19.8332 8.44435V6.59102C19.8332 5.82518 19.6632 5.66602 18.8482 5.66602H16.0448C13.3257 5.66602 11.1207 7.73852 11.1207 10.296V12.6102H9.1515Z" stroke="#FF5A1F" stroke-width="1.5" stroke-linecap="round" stroke-linejoin="round"/>
</svg>
