<svg width="16" height="16" viewBox="0 0 16 16" fill="none" xmlns="http://www.w3.org/2000/svg">
<g clip-path="url(#clip0_239_3294)">
<path d="M2.51867 7.96111C1.88667 6.85978 1.58134 5.95978 1.39734 5.04778C1.12534 3.69845 1.74801 2.38045 2.77934 1.53911C3.21534 1.18378 3.71534 1.30578 3.97334 1.76778L4.55534 2.81245C5.01667 3.64045 5.24734 4.05378 5.20201 4.49245C5.15601 4.93178 4.84467 5.28911 4.22267 6.00378L2.51867 7.96111ZM2.51867 7.96111C3.79801 10.1918 5.80534 12.2011 8.03867 13.4811M8.03867 13.4811C9.14067 14.1131 10.04 14.4184 10.952 14.6024C12.3013 14.8744 13.6193 14.2518 14.46 13.2204C14.816 12.7844 14.694 12.2844 14.232 12.0264L13.1873 11.4444C12.3593 10.9831 11.946 10.7524 11.5073 10.7978C11.068 10.8438 10.7107 11.1551 9.99601 11.7771L8.03867 13.4811Z" stroke="#FF5A1F" stroke-width="1.5" stroke-linecap="round" stroke-linejoin="round"/>
</g>
<defs>
<clipPath id="clip0_239_3294">
<rect width="16" height="16" fill="white"/>
</clipPath>
</defs>
</svg>
