<svg width="24" height="24" viewBox="0 0 24 24" fill="none" xmlns="http://www.w3.org/2000/svg">
<path d="M16.7128 4.59411C18.1928 4.98411 19.2228 5.47911 20.1588 6.08411C21.5428 6.98011 22.1368 8.59411 21.9738 10.1521C21.9038 10.8101 21.3738 11.1251 20.7588 10.9541L19.3698 10.5701C18.2698 10.2651 17.7198 10.1131 17.3838 9.71011C17.0478 9.30711 17.0088 8.75111 16.9298 7.64011L16.7128 4.59411ZM16.7128 4.59411C13.7158 3.80311 10.2868 3.80211 7.28679 4.59411M7.28679 4.59411C5.80679 4.98411 4.77679 5.47911 3.84079 6.08411C2.45679 6.98011 1.86279 8.59411 2.02579 10.1521C2.09579 10.8101 2.62579 11.1251 3.24079 10.9541L4.62979 10.5701C5.72979 10.2651 6.27979 10.1131 6.61579 9.71011C6.95179 9.30711 6.99079 8.75111 7.06979 7.64011L7.28679 4.59411ZM9.49979 17.5001C9.99179 18.0061 11.2998 20.0001 11.9998 20.0001M11.9998 20.0001C12.6998 20.0001 14.0078 18.0061 14.4998 17.5001M11.9998 20.0001V12.0001" stroke="#FDF9F8" stroke-width="2" stroke-linecap="round" stroke-linejoin="round"/>
</svg>
