<svg width="24" height="24" viewBox="0 0 24 24" fill="none" xmlns="http://www.w3.org/2000/svg">
<path d="M16.9998 9.00022C17.6248 9.82022 17.9998 10.8632 17.9998 12.0002C17.9998 13.1372 17.6248 14.1802 16.9998 15.0002M19.9998 7.00022C21.2498 8.36622 21.9998 10.1062 21.9998 12.0002C21.9998 13.8942 21.2498 15.6342 19.9998 17.0002M13.9998 14.8142V9.18622C13.9998 6.04122 13.9998 4.46922 13.0748 4.07722C12.1488 3.68622 11.0598 4.79722 8.88176 7.02222C7.75376 8.17422 7.11076 8.42922 5.50576 8.42922C4.10276 8.42922 3.40076 8.42922 2.89576 8.77322C1.84976 9.48722 2.00976 10.8822 2.00976 12.0002C2.00976 13.1182 1.85076 14.5132 2.89776 15.2272C3.40176 15.5712 4.10376 15.5712 5.50676 15.5712C7.11176 15.5712 7.75476 15.8262 8.88276 16.9782C11.0608 19.2022 12.1498 20.3142 13.0758 19.9232C14.0008 19.5312 13.9998 17.9602 13.9998 14.8142Z" stroke="#FDF9F8" stroke-width="2" stroke-linecap="round" stroke-linejoin="round"/>
</svg>
