<svg width="24" height="24" viewBox="0 0 24 24" fill="none" xmlns="http://www.w3.org/2000/svg">
<path d="M11.992 15.9996H12.001M12 12.9996V8.99963M5.32199 9.68262C7.73499 5.41162 8.94199 3.27663 10.598 2.72663C11.5082 2.42446 12.4917 2.42446 13.402 2.72663C15.058 3.27663 16.265 5.41162 18.678 9.68262C21.092 13.9526 22.298 16.0886 21.937 17.8286C21.737 18.7866 21.247 19.6546 20.535 20.3086C19.241 21.4996 16.827 21.4996 12 21.4996C7.17299 21.4996 4.75899 21.4996 3.46499 20.3096C2.75023 19.6496 2.25999 18.7824 2.06299 17.8296C1.70099 16.0896 2.90799 13.9536 5.32199 9.68262Z" stroke="#070D17" stroke-width="1.5" stroke-linecap="round" stroke-linejoin="round"/>
</svg>
