<svg width="20" height="20" viewBox="0 0 20 20" fill="none" xmlns="http://www.w3.org/2000/svg">
<path d="M7.50001 17.4998C8.16335 18.0182 9.04001 18.3332 10 18.3332C10.96 18.3332 11.8367 18.0182 12.5 17.4998M2.10835 11.9948C1.93085 13.1223 2.72335 13.9048 3.69335 14.2948C7.41251 15.7907 12.5875 15.7907 16.3067 14.2948C17.2767 13.9048 18.0692 13.1223 17.8917 11.9948C17.7833 11.3015 17.2442 10.7248 16.845 10.1615C16.3225 9.414 16.2708 8.59984 16.27 7.73234C16.2708 4.38317 13.4642 1.6665 10 1.6665C6.53585 1.6665 3.72918 4.38317 3.72918 7.73317C3.72918 8.59984 3.67751 9.41484 3.15418 10.1615C2.75585 10.7248 2.21751 11.3015 2.10835 11.9948Z" stroke="#1A1A1A" stroke-width="1.5" stroke-linecap="round" stroke-linejoin="round"/>
</svg>
