<svg width="20" height="20" viewBox="0 0 20 20" fill="none" xmlns="http://www.w3.org/2000/svg">
<path d="M2.5 5.8335H5M5 5.8335C5 5.05683 5 4.6685 5.12667 4.36266C5.21043 4.16031 5.33325 3.97646 5.4881 3.8216C5.64296 3.66674 5.82682 3.54392 6.02917 3.46016C6.335 3.3335 6.72333 3.3335 7.5 3.3335C8.27667 3.3335 8.665 3.3335 8.97083 3.46016C9.17318 3.54392 9.35704 3.66674 9.5119 3.8216C9.66675 3.97646 9.78957 4.16031 9.87333 4.36266C10 4.6685 10 5.05683 10 5.8335C10 6.61016 10 6.9985 9.87333 7.30433C9.78957 7.50668 9.66675 7.69054 9.5119 7.84539C9.35704 8.00025 9.17318 8.12307 8.97083 8.20683C8.665 8.3335 8.27667 8.3335 7.5 8.3335C6.72333 8.3335 6.335 8.3335 6.02917 8.20683C5.82682 8.12307 5.64296 8.00025 5.4881 7.84539C5.33325 7.69054 5.21043 7.50668 5.12667 7.30433C5 6.9985 5 6.61016 5 5.8335ZM2.5 14.1668H7.5M15 14.1668H17.5M15 14.1668C15 13.3902 15 13.0018 14.8733 12.696C14.7896 12.4936 14.6668 12.3098 14.5119 12.1549C14.357 12.0001 14.1732 11.8773 13.9708 11.7935C13.665 11.6668 13.2767 11.6668 12.5 11.6668C11.7233 11.6668 11.335 11.6668 11.0292 11.7935C10.8268 11.8773 10.643 12.0001 10.4881 12.1549C10.3332 12.3098 10.2104 12.4936 10.1267 12.696C10 13.0018 10 13.3902 10 14.1668C10 14.9435 10 15.3318 10.1267 15.6377C10.2104 15.84 10.3332 16.0239 10.4881 16.1787C10.643 16.3336 10.8268 16.4564 11.0292 16.5402C11.335 16.6668 11.7233 16.6668 12.5 16.6668C13.2767 16.6668 13.665 16.6668 13.9708 16.5402C14.1732 16.4564 14.357 16.3336 14.5119 16.1787C14.6668 16.0239 14.7896 15.84 14.8733 15.6377C15 15.3318 15 14.9435 15 14.1668ZM12.5 5.8335H17.5" stroke="#070D17" stroke-width="1.5" stroke-linecap="round" stroke-linejoin="round"/>
</svg>
