<svg width="24" height="24" viewBox="0 0 24 24" fill="none" xmlns="http://www.w3.org/2000/svg">
<path d="M13.728 3.44375L15.488 6.99275C15.728 7.48675 16.368 7.96075 16.908 8.05075L20.097 8.58575C22.137 8.92875 22.617 10.4207 21.147 11.8927L18.667 14.3927C18.247 14.8157 18.017 15.6328 18.147 16.2178L18.857 19.3127C19.417 21.7627 18.127 22.7098 15.977 21.4298L12.987 19.6448C12.447 19.3228 11.557 19.3228 11.007 19.6448L8.019 21.4298C5.879 22.7098 4.579 21.7517 5.139 19.3127L5.849 16.2178C5.979 15.6328 5.749 14.8157 5.329 14.3927L2.849 11.8927C1.39 10.4197 1.86 8.92875 3.899 8.58575L7.089 8.05075C7.619 7.96075 8.25899 7.48675 8.49899 6.99275L10.259 3.44375C11.219 1.51875 12.778 1.51875 13.728 3.44375Z" stroke="#1A1A1A" stroke-width="1.5" stroke-linecap="round" stroke-linejoin="round"/>
</svg>
