<svg width="25" height="24" viewBox="0 0 25 24" fill="none" xmlns="http://www.w3.org/2000/svg">
<path d="M8.125 17C10.457 14.558 14.768 14.443 17.125 17M22.625 12C22.625 17.5228 18.1478 22 12.625 22C7.10215 22 2.625 17.5228 2.625 12C2.625 6.47715 7.10215 2 12.625 2C18.1478 2 22.625 6.47715 22.625 12ZM15.12 9.5C15.12 10.88 14 12 12.617 12C12.2884 12.0005 11.9628 11.9362 11.6591 11.8108C11.3553 11.6854 11.0792 11.5014 10.8466 11.2692C10.6141 11.037 10.4296 10.7612 10.3037 10.4576C10.1778 10.1541 10.113 9.82864 10.113 9.5C10.113 8.12 11.233 7 12.617 7C12.9456 6.99961 13.271 7.06398 13.5746 7.18944C13.8783 7.3149 14.1542 7.49899 14.3867 7.73117C14.6192 7.96336 14.8036 8.23909 14.9294 8.5426C15.0552 8.84611 15.12 9.17144 15.12 9.5Z" stroke="#6A6968" stroke-width="1.5" stroke-linecap="round" stroke-linejoin="round"/>
</svg>
