<svg width="16" height="16" viewBox="0 0 16 16" fill="none" xmlns="http://www.w3.org/2000/svg">
<path d="M4.66667 12.0002C3.44733 12.2748 2.66667 12.6962 2.66667 13.1695C2.66667 13.9962 5.05467 14.6668 8 14.6668C10.9453 14.6668 13.3333 13.9962 13.3333 13.1695C13.3333 12.6962 12.5527 12.2748 11.3333 12.0002M9.66667 6.00016C9.66667 6.44219 9.49107 6.86611 9.17851 7.17867C8.86595 7.49123 8.44203 7.66683 8 7.66683C7.55797 7.66683 7.13405 7.49123 6.82149 7.17867C6.50893 6.86611 6.33333 6.44219 6.33333 6.00016C6.33333 5.55814 6.50893 5.13421 6.82149 4.82165C7.13405 4.50909 7.55797 4.3335 8 4.3335C8.44203 4.3335 8.86595 4.50909 9.17851 4.82165C9.49107 5.13421 9.66667 5.55814 9.66667 6.00016ZM8.838 11.6628C8.61282 11.8795 8.31248 12.0005 8 12.0005C7.68752 12.0005 7.38718 11.8795 7.162 11.6628C5.10267 9.6675 2.34333 7.43883 3.68867 4.20283C4.41733 2.45283 6.164 1.3335 8 1.3335C9.836 1.3335 11.5833 2.4535 12.3113 4.20283C13.6553 7.43416 10.9027 9.67416 8.838 11.6628Z" stroke="#FF5A1F" stroke-width="1.5" stroke-linecap="round" stroke-linejoin="round"/>
</svg>
