<svg width="20" height="20" viewBox="0 0 20 20" fill="none" xmlns="http://www.w3.org/2000/svg">
<path d="M15 14.9998C16.0375 15.3532 16.6667 15.8182 16.6667 16.3273C16.6667 17.4357 13.6817 18.3332 10 18.3332C6.31833 18.3332 3.33333 17.4348 3.33333 16.3273C3.33333 15.8182 3.9625 15.3532 5 14.9998M12.5 7.9165C12.5 8.57955 12.2366 9.21543 11.7678 9.68427C11.2989 10.1531 10.663 10.4165 10 10.4165C9.33696 10.4165 8.70107 10.1531 8.23223 9.68427C7.76339 9.21543 7.5 8.57955 7.5 7.9165C7.5 7.25346 7.76339 6.61758 8.23223 6.14874C8.70107 5.6799 9.33696 5.4165 10 5.4165C10.663 5.4165 11.2989 5.6799 11.7678 6.14874C12.2366 6.61758 12.5 7.25346 12.5 7.9165ZM10 1.6665C13.3825 1.6665 16.25 4.52317 16.25 7.989C16.25 11.5098 13.3358 13.9807 10.6442 15.6607C10.4482 15.7734 10.2261 15.8328 10 15.8328C9.77392 15.8328 9.5518 15.7734 9.35583 15.6607C6.66917 13.964 3.75 11.5223 3.75 7.989C3.75 4.52317 6.6175 1.6665 10 1.6665Z" stroke="#1A1A1A" stroke-width="1.5" stroke-linecap="round" stroke-linejoin="round"/>
</svg>
