<svg width="28" height="28" viewBox="0 0 28 28" fill="none" xmlns="http://www.w3.org/2000/svg">
<rect width="28" height="28" rx="14" fill="#FFEFE9"/>
<path d="M18.5902 9.41732H18.5818M6.0835 14.0007C6.0835 10.269 6.0835 8.40232 7.24266 7.24315C8.40183 6.08398 10.2677 6.08398 14.0002 6.08398C17.7318 6.08398 19.5985 6.08398 20.7577 7.24315C21.9168 8.40232 21.9168 10.2682 21.9168 14.0007C21.9168 17.7323 21.9168 19.599 20.7577 20.7582C19.5985 21.9173 17.7327 21.9173 14.0002 21.9173C10.2685 21.9173 8.40183 21.9173 7.24266 20.7582C6.0835 19.599 6.0835 17.7332 6.0835 14.0007ZM17.7502 14.0007C17.7502 14.9952 17.3551 15.949 16.6518 16.6523C15.9486 17.3556 14.9947 17.7507 14.0002 17.7507C13.0056 17.7507 12.0518 17.3556 11.3485 16.6523C10.6453 15.949 10.2502 14.9952 10.2502 14.0007C10.2502 13.0061 10.6453 12.0523 11.3485 11.349C12.0518 10.6457 13.0056 10.2507 14.0002 10.2507C14.9947 10.2507 15.9486 10.6457 16.6518 11.349C17.3551 12.0523 17.7502 13.0061 17.7502 14.0007Z" stroke="#FF5A1F" stroke-width="1.5" stroke-linecap="round" stroke-linejoin="round"/>
</svg>
