<svg width="16" height="16" viewBox="0 0 16 16" fill="none" xmlns="http://www.w3.org/2000/svg">
<path d="M4.66666 11.9997C3.44732 12.2743 2.66666 12.6957 2.66666 13.169C2.66666 13.9957 5.05466 14.6663 7.99999 14.6663C10.9453 14.6663 13.3333 13.9957 13.3333 13.169C13.3333 12.6957 12.5527 12.2743 11.3333 11.9997M9.66666 5.99967C9.66666 6.4417 9.49106 6.86563 9.1785 7.17819C8.86594 7.49075 8.44202 7.66634 7.99999 7.66634C7.55796 7.66634 7.13404 7.49075 6.82148 7.17819C6.50892 6.86563 6.33332 6.4417 6.33332 5.99967C6.33332 5.55765 6.50892 5.13372 6.82148 4.82116C7.13404 4.5086 7.55796 4.33301 7.99999 4.33301C8.44202 4.33301 8.86594 4.5086 9.1785 4.82116C9.49106 5.13372 9.66666 5.55765 9.66666 5.99967ZM8.83799 11.6623C8.61281 11.879 8.31247 12 7.99999 12C7.68751 12 7.38717 11.879 7.16199 11.6623C5.10266 9.66701 2.34332 7.43834 3.68866 4.20234C4.41732 2.45234 6.16399 1.33301 7.99999 1.33301C9.83599 1.33301 11.5833 2.45301 12.3113 4.20234C13.6553 7.43367 10.9027 9.67367 8.83799 11.6623Z" stroke="#FF5A1F" stroke-linecap="round" stroke-linejoin="round"/>
</svg>
