<svg width="16" height="17" viewBox="0 0 16 17" fill="none" xmlns="http://www.w3.org/2000/svg">
<path d="M5 8.83362V4.83362M9.95067 2.44096L5.516 4.57029C5.18129 4.73342 4.8006 4.77627 4.438 4.69162C4.28501 4.65368 4.13041 4.62254 3.97467 4.59829C2.758 4.46029 2 5.42296 2 6.53029V7.13829C2 8.24496 2.758 9.20829 3.97467 9.06896C4.13058 9.04591 4.28522 9.01498 4.438 8.97629C4.80068 8.89185 5.18137 8.93494 5.516 9.09829L9.95067 11.227C10.9687 11.7156 11.478 11.9603 12.0453 11.7696C12.6133 11.579 12.808 11.1703 13.1973 10.353C13.7257 9.25521 14 8.05257 14 6.83429C14 5.61601 13.7257 4.41337 13.1973 3.31562C12.808 2.49829 12.6133 2.08896 12.0453 1.89896C11.478 1.70829 10.9687 1.95162 9.95067 2.44096ZM7.63867 14.347L6.64467 15.167C4.40333 13.3896 4.67733 12.5423 4.67733 9.16696H5.43333C5.74 11.0736 6.46333 11.9776 7.462 12.6316C8.07667 13.0343 8.20333 13.8816 7.63867 14.347Z" stroke="#FF5A1F" stroke-linecap="round" stroke-linejoin="round"/>
</svg>
