<svg width="28" height="28" viewBox="0 0 28 28" fill="none" xmlns="http://www.w3.org/2000/svg">
<rect width="28" height="28" rx="14" fill="#FFEFE9"/>
<g clip-path="url(#clip0_956_5015)">
<path d="M11.1565 14.3135L11.8823 13.4127C12.1882 13.0327 12.5657 12.6793 12.5965 12.1727C12.6032 12.0452 12.5132 11.4718 12.334 10.3243C12.2632 9.87352 11.8415 9.83268 11.4773 9.83268C11.0023 9.83268 10.7648 9.83268 10.529 9.94102C10.2307 10.0768 9.92484 10.4593 9.85734 10.7802C9.804 11.0343 9.844 11.2093 9.92317 11.5593C10.2582 13.0452 11.0457 14.5127 12.2657 15.7335C13.4865 16.9535 14.954 17.741 16.4407 18.076C16.7907 18.1552 16.9648 18.1952 17.219 18.1419C17.5398 18.0752 17.9223 17.7685 18.059 17.4702C18.1665 17.2344 18.1665 16.9969 18.1665 16.5219C18.1665 16.1569 18.1257 15.736 17.6748 15.6652C16.5273 15.4852 15.954 15.396 15.8265 15.4027C15.3207 15.4327 14.9665 15.811 14.5865 16.1169L13.6857 16.8419M13.9998 22.3327C18.6023 22.3327 22.3332 18.6019 22.3332 13.9993C22.3332 9.39685 18.6023 5.66602 13.9998 5.66602C9.39734 5.66602 5.6665 9.39685 5.6665 13.9993C5.6665 15.1485 5.89984 16.2435 6.31984 17.2393C6.55234 17.7894 6.66817 18.0644 6.68317 18.2727C6.69734 18.481 6.63567 18.7094 6.51317 19.1669L5.6665 22.3327L8.83234 21.486C9.28984 21.3635 9.51817 21.3027 9.7265 21.316C9.93484 21.331 10.2098 21.4469 10.7598 21.6794C11.7854 22.1113 12.887 22.3334 13.9998 22.3327Z" stroke="#FF5A1F" stroke-width="1.5" stroke-linecap="round" stroke-linejoin="round"/>
</g>
<defs>
<clipPath id="clip0_956_5015">
<rect width="20" height="20" fill="white" transform="translate(4 4)"/>
</clipPath>
</defs>
</svg>
